<?xml version="1.0" encoding="UTF-8"?>
<svg xmlns="http://www.w3.org/2000/svg" xmlns:xlink="http://www.w3.org/1999/xlink" width="0" height="0">
<symbol id="phone" width="21" height="33" viewBox="0 0 21 33" fill="none">
<path d="M16.5417 0.175781H4.875C2.45417 0.175781 0.5 2.12995 0.5 4.55078V27.8841C0.5 30.3049 2.45417 32.2591 4.875 32.2591H16.5417C18.9625 32.2591 20.9167 30.3049 20.9167 27.8841V4.55078C20.9167 2.12995 18.9625 0.175781 16.5417 0.175781ZM13.625 29.3424H7.79167V27.8841H13.625V29.3424ZM18.3646 24.9674H3.05208V4.55078H18.3646V24.9674Z" fill="#2091F9"/>
</symbol>

<symbol id="play" viewBox="0 0 40 48">
<path d="M0.402344 0.593994L39.4434 24.0186L0.402344 47.4432V0.593994Z"/>
</symbol>

<symbol id="x" viewBox="0 0 34 28">
<path d="M33.6845 3.68535C32.4597 4.2137 31.1269 4.59394 29.754 4.74204C31.1793 3.89523 32.2467 2.55742 32.7559 0.979599C31.4184 1.77527 29.9531 2.33321 28.4251 2.62867C27.7865 1.94593 27.0141 1.40203 26.156 1.03086C25.298 0.659692 24.3727 0.469204 23.4379 0.471269C19.6554 0.471269 16.6134 3.53726 16.6134 7.2997C16.6134 7.82804 16.6775 8.35639 16.7815 8.86472C11.1179 8.56852 6.0666 5.86277 2.70842 1.72008C2.09652 2.76522 1.77587 3.95523 1.77981 5.16632C1.77981 7.53585 2.9846 9.62521 4.82179 10.854C3.7391 10.8114 2.68177 10.5138 1.73579 9.98544V10.0695C1.73579 13.3876 4.08131 16.1374 7.20734 16.7698C6.62039 16.9223 6.01659 17.0003 5.41017 17.002C4.96588 17.002 4.54561 16.958 4.12133 16.8979C4.98589 19.6037 7.50353 21.569 10.5015 21.633C8.15595 23.4702 5.21805 24.5509 2.02798 24.5509C1.4556 24.5509 0.927262 24.5309 0.378906 24.4668C3.40487 26.4081 6.9952 27.5288 10.8617 27.5288C23.4139 27.5288 30.2823 17.1301 30.2823 8.10422C30.2823 7.80803 30.2823 7.51184 30.2623 7.21565C31.5912 6.24301 32.7559 5.03823 33.6845 3.68535Z"/>
</symbol>

<symbol id="email" width="27" height="22" viewBox="0 0 27 22" fill="none">
<path d="M25.8125 0.904785H1.4375C0.918945 0.904785 0.5 1.32373 0.5 1.84229V20.5923C0.5 21.1108 0.918945 21.5298 1.4375 21.5298H25.8125C26.3311 21.5298 26.75 21.1108 26.75 20.5923V1.84229C26.75 1.32373 26.3311 0.904785 25.8125 0.904785ZM24.6406 4.15088V19.4204H2.60938V4.15088L1.80078 3.521L2.95215 2.0415L4.20605 3.01709H23.0469L24.3008 2.0415L25.4521 3.521L24.6406 4.15088ZM23.0469 3.01416L13.625 10.3384L4.20312 3.01416L2.94922 2.03857L1.79785 3.51807L2.60645 4.14795L12.6143 11.9292C12.9021 12.1528 13.2561 12.2742 13.6206 12.2742C13.9851 12.2742 14.3391 12.1528 14.627 11.9292L24.6406 4.15088L25.4492 3.521L24.2979 2.0415L23.0469 3.01416Z" fill="#2091F9"/>
</symbol>

<symbol id="facebook" viewBox="0 0 42 42">
<path d="M35.7517 4.98962H6.29255C5.58409 4.98962 5.01172 5.562 5.01172 6.27046V35.7296C5.01172 36.438 5.58409 37.0104 6.29255 37.0104H35.7517C36.4601 37.0104 37.0325 36.438 37.0325 35.7296V6.27046C37.0325 5.562 36.4601 4.98962 35.7517 4.98962ZM32.0533 14.3357H29.4956C27.4903 14.3357 27.1021 15.2883 27.1021 16.6892V19.7752H31.8892L31.2648 24.6064H27.1021V37.0104H22.1108V24.6104H17.9361V19.7752H22.1108V16.2129C22.1108 12.0782 24.6365 9.82476 28.3268 9.82476C30.096 9.82476 31.613 9.95685 32.0573 10.0169V14.3357H32.0533Z"/>
</symbol>

<symbol id="features-1" viewBox="0 0 47 47" fill="none">
<path d="M14.6042 0.625C18.3117 0.625 21.8673 2.0978 24.4889 4.7194C27.1105 7.34101 28.5833 10.8967 28.5833 14.6042C28.5833 17.9846 27.3888 21.0854 25.3808 23.5H46.375V46.375H23.5V25.3808C21.0854 27.3888 17.9846 28.5833 14.6042 28.5833C10.8967 28.5833 7.34101 27.1105 4.7194 24.4889C2.0978 21.8673 0.625 18.3117 0.625 14.6042C0.625 10.8967 2.0978 7.34101 4.7194 4.7194C7.34101 2.0978 10.8967 0.625 14.6042 0.625Z" fill="#2091F9"/>
</symbol>

<symbol id="features-2" viewBox="0 0 45 42" fill="none">
<path d="M18.2486 41.65C22.402 40.0167 21.492 35.5134 19.392 32.6667C17.3153 29.75 14.4453 27.7434 11.552 25.8067C9.48756 24.5055 7.64432 22.8829 6.09197 21C5.43863 20.23 4.10863 18.8067 5.46197 18.5267C6.83863 18.2467 9.21863 19.6 10.432 20.1134C12.5553 21 14.6553 22.0267 16.6153 23.24L18.972 19.2734C15.332 16.87 10.6653 14.7467 6.3253 14.1167C3.85197 13.7434 1.23863 14.2567 0.398634 16.94C-0.348033 19.25 0.841967 21.5834 2.1953 23.4034C5.39197 27.6734 10.362 29.7267 14.072 33.4134C14.8653 34.1834 15.822 35.0934 16.2886 36.1667C16.7786 37.1934 16.662 37.2634 15.5653 37.2634C12.672 37.2634 9.0553 35 6.69864 33.5067L4.34197 37.4734C7.91197 39.6667 13.8853 43.0967 18.2486 41.65ZM44.1253 5.25004C44.6386 4.7367 44.6386 3.8967 44.1253 3.4067L41.092 0.373369C40.8476 0.137831 40.5214 0.00622559 40.182 0.00622559C39.8425 0.00622559 39.5164 0.137831 39.272 0.373369L36.892 2.75337L41.7453 7.6067L44.1253 5.25004ZM21.1653 18.48V23.3334H26.0186L40.3686 8.98337L35.5153 4.13004L21.1653 18.48Z" fill="#2091F9"/>
</symbol>

<symbol id="features-3" viewBox="0 0 49 47" fill="none">
<path d="M47.6366 4.76792L44.2308 1.36209C43.2904 0.37084 41.6383 0.37084 40.647 1.36209L17.8737 24.1354L24.8633 31.125L47.6366 8.35167C48.6279 7.36042 48.6279 5.70834 47.6366 4.76792ZM12.7904 28.5833C10.7681 28.5833 8.82864 29.3867 7.39868 30.8167C5.96871 32.2466 5.16536 34.1861 5.16536 36.2083C5.16536 39.5379 2.21703 41.2917 0.0820312 41.2917C2.42036 44.3925 6.4362 46.375 10.2487 46.375C12.9451 46.375 15.531 45.3039 17.4376 43.3973C19.3442 41.4906 20.4154 38.9047 20.4154 36.2083C20.4154 34.1861 19.612 32.2466 18.1821 30.8167C16.7521 29.3867 14.8126 28.5833 12.7904 28.5833Z" fill="#2091F9"/>
</symbol>

<symbol id="linkedin" viewBox="0 0 42 42">
<path d="M35.736 4.98962H6.27692C5.56847 4.98962 4.99609 5.562 4.99609 6.27046V35.7296C4.99609 36.438 5.56847 37.0104 6.27692 37.0104H35.736C36.4445 37.0104 37.0169 36.438 37.0169 35.7296V6.27046C37.0169 5.562 36.4445 4.98962 35.736 4.98962ZM14.4943 32.2753H9.74317V16.9934H14.4943V32.2753ZM12.1207 14.9041C11.5761 14.9041 11.0437 14.7425 10.5908 14.44C10.1379 14.1374 9.78498 13.7073 9.57655 13.2041C9.36812 12.7009 9.31359 12.1472 9.41984 11.613C9.5261 11.0789 9.78837 10.5882 10.1735 10.203C10.5586 9.81792 11.0493 9.55565 11.5835 9.4494C12.1177 9.34314 12.6714 9.39768 13.1745 9.6061C13.6777 9.81453 14.1078 10.1675 14.4104 10.6203C14.713 11.0732 14.8745 11.6056 14.8745 12.1503C14.8705 13.6713 13.6377 14.9041 12.1207 14.9041ZM32.2818 32.2753H27.5347V24.8425C27.5347 23.0694 27.5027 20.7919 25.0651 20.7919C22.5955 20.7919 22.2153 22.7211 22.2153 24.7144V32.2753H17.4722V16.9934H22.0271V19.0828H22.0912C22.7236 17.882 24.2726 16.6132 26.5861 16.6132C31.3972 16.6132 32.2818 19.7792 32.2818 23.8939V32.2753Z"/>
</symbol>

<symbol id="navigation" width="26" height="33" viewBox="0 0 26 33" fill="none">
<path d="M11.7485 32.256C12.0164 32.4473 12.3375 32.5502 12.6668 32.5502C12.9961 32.5502 13.3172 32.4473 13.5851 32.256C14.0665 31.9155 25.3794 23.7471 25.3335 13.5505C25.3335 6.56637 19.6509 0.883789 12.6668 0.883789C5.68272 0.883789 0.000139393 6.56637 0.000139393 13.5425C-0.0457773 23.7471 11.2671 31.9155 11.7485 32.256ZM12.6668 4.05046C17.9061 4.05046 22.1668 8.31121 22.1668 13.5584C22.2001 20.5852 15.2191 26.8948 12.6668 28.9642C10.1161 26.8932 3.13356 20.582 3.16681 13.5505C3.16681 8.31121 7.42756 4.05046 12.6668 4.05046Z" fill="#2091F9"/>
</symbol>

</svg>
